<svg width="184" height="36" viewBox="0 0 184 36" fill="none" xmlns="http://www.w3.org/2000/svg">
<path d="M14.9548 20.7554C14.9548 19.7178 14.5886 18.9243 13.8562 18.375C13.1238 17.8135 11.8054 17.2275 9.90112 16.6172C7.99683 15.9946 6.48926 15.3843 5.37842 14.7861C2.35107 13.1504 0.837402 10.947 0.837402 8.17603C0.837402 6.7356 1.24023 5.45386 2.0459 4.33081C2.86377 3.19556 4.02954 2.31055 5.54321 1.67578C7.06909 1.04102 8.77808 0.723633 10.6702 0.723633C12.5745 0.723633 14.2712 1.07153 15.7605 1.76733C17.2498 2.45093 18.4033 3.42139 19.2212 4.67871C20.0513 5.93604 20.4663 7.36426 20.4663 8.96338H14.9731C14.9731 7.74268 14.5886 6.79663 13.8196 6.12524C13.0505 5.44165 11.9702 5.09985 10.5786 5.09985C9.23584 5.09985 8.19214 5.38672 7.44751 5.96045C6.70288 6.52197 6.33057 7.2666 6.33057 8.19434C6.33057 9.06104 6.76392 9.78735 7.63062 10.3733C8.50952 10.9592 9.79736 11.5085 11.4941 12.0212C14.6191 12.9612 16.8958 14.127 18.324 15.5186C19.7522 16.9102 20.4663 18.6436 20.4663 20.7188C20.4663 23.0259 19.5935 24.8386 17.8479 26.157C16.1023 27.4631 13.7524 28.1162 10.7983 28.1162C8.74756 28.1162 6.87988 27.7439 5.19531 26.9993C3.51074 26.2424 2.2229 25.2109 1.33179 23.9048C0.452881 22.5986 0.0134277 21.085 0.0134277 19.3638H5.5249C5.5249 22.3057 7.28271 23.7766 10.7983 23.7766C12.1045 23.7766 13.1238 23.5142 13.8562 22.9893C14.5886 22.4521 14.9548 21.7075 14.9548 20.7554ZM41.6882 18.0271C41.6882 21.0789 40.9924 23.5264 39.6008 25.3696C38.2214 27.2007 36.3538 28.1162 33.9978 28.1162C31.9958 28.1162 30.3784 27.4204 29.1455 26.0288V35.3672H23.8538V7.93799H28.761L28.9441 9.87891C30.2258 8.34082 31.8982 7.57178 33.9612 7.57178C36.4026 7.57178 38.3008 8.4751 39.6558 10.2817C41.0107 12.0884 41.6882 14.5786 41.6882 17.7524V18.0271ZM36.3965 17.6426C36.3965 15.7993 36.0669 14.3772 35.4077 13.3762C34.7607 12.3752 33.8147 11.8748 32.5696 11.8748C30.9094 11.8748 29.7681 12.5095 29.1455 13.7791V21.8906C29.7925 23.1968 30.946 23.8499 32.6062 23.8499C35.1331 23.8499 36.3965 21.7808 36.3965 17.6426ZM56.4648 27.75C56.2207 27.2739 56.0437 26.6819 55.9338 25.9739C54.6521 27.4021 52.9858 28.1162 50.9351 28.1162C48.9941 28.1162 47.3828 27.5547 46.1011 26.4316C44.8315 25.3086 44.1968 23.8926 44.1968 22.1836C44.1968 20.084 44.9719 18.4727 46.5222 17.3496C48.0847 16.2266 50.3369 15.6589 53.2788 15.6467H55.7141V14.5115C55.7141 13.5959 55.4761 12.8635 55 12.3142C54.5361 11.7649 53.7976 11.4902 52.7844 11.4902C51.8933 11.4902 51.1914 11.7039 50.6787 12.1311C50.1782 12.5583 49.928 13.1443 49.928 13.8889H44.6362C44.6362 12.7415 44.9902 11.6794 45.6982 10.7029C46.4062 9.72632 47.4072 8.96338 48.7012 8.41406C49.9951 7.85254 51.4478 7.57178 53.0591 7.57178C55.5005 7.57178 57.4353 8.18823 58.8635 9.42114C60.304 10.6418 61.0242 12.363 61.0242 14.5847V23.1724C61.0364 25.0522 61.2988 26.4744 61.8115 27.4387V27.75H56.4648ZM52.0886 24.0696C52.8699 24.0696 53.5901 23.8987 54.2493 23.5569C54.9084 23.2029 55.3967 22.7329 55.7141 22.147V18.7412H53.7366C51.0876 18.7412 49.6777 19.6567 49.5068 21.4878L49.4885 21.7991C49.4885 22.4583 49.7205 23.0015 50.1843 23.4287C50.6482 23.856 51.283 24.0696 52.0886 24.0696ZM73.3289 23.8499C74.3054 23.8499 75.0989 23.5813 75.7092 23.0442C76.3196 22.5071 76.637 21.793 76.6614 20.9019H81.6235C81.6113 22.2446 81.2451 23.4775 80.5249 24.6006C79.8047 25.7114 78.8159 26.5781 77.5586 27.2007C76.3135 27.811 74.9341 28.1162 73.4204 28.1162C70.5884 28.1162 68.3545 27.219 66.7188 25.4246C65.083 23.6179 64.2651 21.1277 64.2651 17.9539V17.606C64.2651 14.5542 65.0769 12.1189 66.7004 10.3C68.324 8.4812 70.5518 7.57178 73.3838 7.57178C75.8618 7.57178 77.8455 8.27979 79.3347 9.6958C80.8362 11.0996 81.5991 12.9734 81.6235 15.3171H76.6614C76.637 14.2917 76.3196 13.4617 75.7092 12.8269C75.0989 12.1799 74.2932 11.8564 73.2922 11.8564C72.0593 11.8564 71.1255 12.3081 70.4907 13.2114C69.8682 14.1025 69.5569 15.5552 69.5569 17.5693V18.1187C69.5569 20.1572 69.8682 21.6221 70.4907 22.5132C71.1133 23.4043 72.0593 23.8499 73.3289 23.8499ZM93.7634 28.1162C90.8582 28.1162 88.49 27.2251 86.6589 25.4429C84.8401 23.6606 83.9307 21.2864 83.9307 18.3201V17.8074C83.9307 15.8176 84.3152 14.0415 85.0842 12.479C85.8533 10.9043 86.9397 9.6958 88.3435 8.85352C89.7595 7.99902 91.3708 7.57178 93.1775 7.57178C95.8875 7.57178 98.0176 8.42627 99.5679 10.1353C101.13 11.8442 101.912 14.2673 101.912 17.4045V19.5652H89.2957C89.4666 20.8591 89.9792 21.8967 90.8337 22.678C91.7004 23.4592 92.793 23.8499 94.1113 23.8499C96.1499 23.8499 97.7429 23.1113 98.8904 21.6343L101.49 24.5457C100.697 25.6687 99.6228 26.5476 98.2678 27.1824C96.9128 27.8049 95.4114 28.1162 93.7634 28.1162ZM93.1592 11.8564C92.1094 11.8564 91.2549 12.2104 90.5957 12.9185C89.9487 13.6265 89.5337 14.6396 89.3506 15.958H96.7114V15.5369C96.687 14.365 96.3696 13.4617 95.7593 12.8269C95.1489 12.1799 94.2822 11.8564 93.1592 11.8564ZM115.663 22.2751C115.663 21.6282 115.339 21.1216 114.692 20.7554C114.058 20.377 113.032 20.0413 111.616 19.7483C106.904 18.7595 104.548 16.7576 104.548 13.7424C104.548 11.9846 105.275 10.5198 106.727 9.3479C108.192 8.16382 110.103 7.57178 112.458 7.57178C114.973 7.57178 116.981 8.16382 118.483 9.3479C119.996 10.532 120.753 12.0701 120.753 13.9622H115.461C115.461 13.2053 115.217 12.5828 114.729 12.0945C114.241 11.594 113.478 11.3438 112.44 11.3438C111.549 11.3438 110.859 11.5452 110.371 11.948C109.883 12.3508 109.639 12.8635 109.639 13.4861C109.639 14.072 109.913 14.5481 110.463 14.9143C111.024 15.2683 111.964 15.5796 113.282 15.8481C114.601 16.1045 115.712 16.3975 116.615 16.7271C119.41 17.7524 120.808 19.5286 120.808 22.0554C120.808 23.8621 120.033 25.3269 118.483 26.45C116.932 27.5608 114.93 28.1162 112.477 28.1162C110.817 28.1162 109.34 27.8232 108.046 27.2373C106.764 26.6392 105.757 25.8274 105.024 24.802C104.292 23.7644 103.926 22.6475 103.926 21.4512H108.943C108.992 22.3911 109.34 23.1113 109.987 23.6118C110.634 24.1123 111.5 24.3625 112.587 24.3625C113.6 24.3625 114.363 24.1733 114.875 23.7949C115.4 23.4043 115.663 22.8977 115.663 22.2751ZM124.507 25.1499C124.507 24.3076 124.788 23.624 125.349 23.0991C125.923 22.5742 126.637 22.3118 127.491 22.3118C128.358 22.3118 129.072 22.5742 129.634 23.0991C130.208 23.624 130.494 24.3076 130.494 25.1499C130.494 25.98 130.214 26.6575 129.652 27.1824C129.091 27.6951 128.37 27.9514 127.491 27.9514C126.625 27.9514 125.911 27.6951 125.349 27.1824C124.788 26.6575 124.507 25.98 124.507 25.1499ZM157.173 27.75H151.68L140.986 10.2085V27.75H135.493V1.08984H140.986L151.698 18.668V1.08984H157.173V27.75ZM183.064 24.3809C182.075 25.5649 180.677 26.4866 178.871 27.1458C177.064 27.7927 175.062 28.1162 172.865 28.1162C170.558 28.1162 168.531 27.6157 166.786 26.6147C165.052 25.6016 163.71 24.1367 162.758 22.2202C161.818 20.3037 161.335 18.0515 161.311 15.4636V13.6509C161.311 10.9897 161.757 8.68872 162.648 6.7478C163.551 4.79468 164.845 3.30542 166.53 2.28003C168.226 1.24243 170.21 0.723633 172.48 0.723633C175.642 0.723633 178.114 1.48047 179.896 2.99414C181.678 4.49561 182.734 6.68677 183.064 9.56763H177.717C177.473 8.04175 176.93 6.9248 176.088 6.2168C175.258 5.50879 174.11 5.15479 172.645 5.15479C170.778 5.15479 169.355 5.85669 168.379 7.2605C167.402 8.66431 166.908 10.7517 166.896 13.5227V15.2256C166.896 18.021 167.427 20.1328 168.489 21.561C169.551 22.9893 171.107 23.7034 173.158 23.7034C175.221 23.7034 176.692 23.2639 177.571 22.385V17.7891H172.572V13.7424H183.064V24.3809Z" fill="#443A63"/>
</svg>
